<svg width="150" height="80" viewBox="0 0 150 80" fill="none" xmlns="http://www.w3.org/2000/svg">
<path d="M7.59822 49.8269C7.59822 49.8269 9.72291 21.5605 18.6005 5.21734C24.4714 -5.59057 -23.7433 79.3841 62.0335 60.0541C85.4572 54.7755 121.18 47.8474 148.232 62.3635" stroke="#4F8154" stroke-width="6"/>
<path d="M5.65523 1.02948L1.00894 12.0295H52.3627L57.0089 1.02948H5.65523Z" fill="#92B469" stroke="#6DA486" stroke-width="0.5"/>
<path d="M56.425 1H1.00001M56.425 2.31964H1.00001M56.425 3.63929H1.00001M56.425 4.95893H1.00001M56.425 6.27857H1.00001M56.425 7.59822H1.00001M56.425 8.91786H1.00001M56.425 10.2375H1.00001M56.425 11.5571H1.00001" stroke="#496E46"/>
<path d="M5.65523 20.0295L1.00894 31.0295H52.3627L57.0089 20.0295H5.65523Z" fill="#92B469" stroke="#6DA486" stroke-width="0.5"/>
<path d="M56.425 21.4545H1.00001" stroke="#496E46"/>
<path d="M56.425 20.1348H1.00001M56.425 22.7741H1.00001M56.425 24.0938H1.00001M56.425 25.4134H1.00001M56.425 26.733H1.00001M56.425 28.0527H1.00001M56.425 29.3723H1.00001M56.425 30.692H1.00001" stroke="#496E46"/>
<path d="M5.65523 41.0295L1.00894 51.0295H52.3627L57.0089 41.0295H5.65523Z" fill="#92B469" stroke="#6DA486" stroke-width="0.5"/>
<path d="M56.425 40.5893H1.00001M56.425 41.9089H1.00001M56.425 43.2286H1.00001M56.425 44.5482H1.00001M56.425 45.8679H1.00001M56.425 47.1875H1.00001M56.425 48.5072H1.00001M56.425 49.8268H1.00001M56.425 51.1464H1.00001" stroke="#496E46"/>
<path d="M73.4009 52.7828C71.015 52.7828 68.9669 52.2761 67.2567 51.2626C65.5464 50.2491 64.2373 48.8556 63.3294 47.082C62.4215 45.2872 61.9675 43.2497 61.9675 40.9694C61.9675 38.7101 62.4321 36.7043 63.3611 34.9518C64.2901 33.1993 65.5675 31.8269 67.1933 30.8345C68.8402 29.8421 70.7089 29.3459 72.7992 29.3459C74.9317 29.3459 76.8109 29.8421 78.4367 30.8345C80.0836 31.8269 81.3716 33.1993 82.3006 34.9518C83.2296 36.7043 83.6941 38.7207 83.6941 41.001C83.6941 42.6902 83.4091 44.2632 82.839 45.7201C82.2689 47.1559 81.4349 48.3594 80.337 49.3306C79.239 50.3019 77.8772 50.9564 76.2514 51.2943L73.4009 52.7828ZM72.7992 50.5658C74.4672 50.5658 75.9135 50.1541 77.1382 49.3306C78.3628 48.4861 79.3129 47.3353 79.9886 45.8784C80.6854 44.4216 81.0337 42.7746 81.0337 40.9377C81.0337 39.1219 80.6854 37.5172 79.9886 36.1236C79.3129 34.7301 78.3522 33.6427 77.1065 32.8615C75.8819 32.0802 74.4461 31.6896 72.7992 31.6896C71.1523 31.6896 69.7165 32.0802 68.4919 32.8615C67.2672 33.6427 66.3171 34.7301 65.6414 36.1236C64.9658 37.4961 64.6279 39.1007 64.6279 40.9377C64.6279 42.7958 64.9658 44.4532 65.6414 45.9101C66.3382 47.3459 67.2989 48.4861 68.5235 49.3306C69.7482 50.1541 71.1734 50.5658 72.7992 50.5658ZM73.4009 52.7828L72.8308 51.0726L84.5493 50.1858V52.4661C83.2613 52.4661 82.1739 52.4767 81.2871 52.4978C80.4214 52.54 79.6191 52.5822 78.8801 52.6245C78.1411 52.6667 77.3493 52.6984 76.5047 52.7195C75.6602 52.7617 74.6256 52.7828 73.4009 52.7828Z" fill="white"/>
<path d="M96.5562 52.7828C93.8114 52.7828 91.6683 51.9488 90.1269 50.2808C88.6067 48.5916 87.8466 46.2374 87.8466 43.218V29.6627H90.4436V43.3447C90.4436 45.6251 90.9715 47.3776 92.0272 48.6022C93.0829 49.8268 94.5926 50.4391 96.5562 50.4391C98.5621 50.4391 100.093 49.8374 101.149 48.6339C102.204 47.4092 102.732 45.6462 102.732 43.3447V29.6627H105.329V43.2497C105.329 46.2479 104.559 48.5916 103.017 50.2808C101.476 51.9488 99.3222 52.7828 96.5562 52.7828Z" fill="white"/>
<path d="M110.584 52.4661V29.6627H113.181V52.4661H110.584Z" fill="white"/>
<path d="M78.2255 78.859V77.2437H83.6888C84.734 77.2437 85.5654 76.9587 86.183 76.3886C86.8006 75.8185 87.1094 75.0505 87.1094 74.0845C87.1094 73.0552 86.7847 72.2317 86.1355 71.6141C85.4862 70.9965 84.6152 70.6877 83.5226 70.6877H78.2255V69.12H83.2613C84.3381 69.12 85.1774 68.8587 85.7792 68.3361C86.3809 67.8136 86.6818 67.0772 86.6818 66.1271C86.6818 65.2403 86.3968 64.5593 85.8267 64.0842C85.2724 63.6092 84.4569 63.3716 83.3801 63.3716H78.2255V61.7564H83.5463C85.1141 61.7564 86.3493 62.1285 87.2519 62.8728C88.1704 63.6171 88.6296 64.6306 88.6296 65.9133C88.6296 66.7209 88.4475 67.4414 88.0833 68.0748C87.719 68.7083 87.2202 69.2071 86.5868 69.5713C85.9534 69.9197 85.2249 70.0939 84.4015 70.0939L84.5202 69.5951C85.3912 69.5951 86.1671 69.8009 86.8481 70.2127C87.5448 70.6244 88.0912 71.1866 88.4871 71.8992C88.8988 72.5959 89.1047 73.3956 89.1047 74.2983C89.1047 75.2009 88.883 76.0006 88.4396 76.6974C88.012 77.3783 87.4023 77.9088 86.6105 78.2889C85.8188 78.6689 84.9003 78.859 83.8551 78.859H78.2255ZM76.9428 78.859V61.7564H78.8906V78.859H76.9428Z" fill="white"/>
<path d="M99.6843 79.0965C98.4966 79.0965 97.4039 78.8827 96.4063 78.4552C95.4245 78.0118 94.5693 77.3942 93.8409 76.6024C93.1125 75.7948 92.5424 74.8525 92.1306 73.7757C91.7348 72.6989 91.5368 71.5191 91.5368 70.2364C91.5368 68.542 91.8852 67.0376 92.582 65.7232C93.2787 64.4089 94.2368 63.3796 95.4561 62.6353C96.6913 61.891 98.0928 61.5189 99.6605 61.5189C101.26 61.5189 102.669 61.891 103.889 62.6353C105.124 63.3796 106.09 64.4089 106.787 65.7232C107.483 67.0376 107.832 68.5499 107.832 70.2602C107.832 71.5429 107.626 72.7226 107.214 73.7995C106.818 74.8763 106.256 75.8106 105.528 76.6024C104.799 77.3942 103.936 78.0118 102.939 78.4552C101.941 78.8827 100.856 79.0965 99.6843 79.0965ZM99.6605 77.3387C100.88 77.3387 101.949 77.0379 102.867 76.4361C103.802 75.8185 104.53 74.9713 105.053 73.8945C105.575 72.8176 105.836 71.5904 105.836 70.2127C105.836 68.8508 105.575 67.6473 105.053 66.6021C104.546 65.557 103.825 64.7414 102.891 64.1555C101.973 63.5696 100.896 63.2766 99.6605 63.2766C98.4253 63.2766 97.3485 63.5696 96.43 64.1555C95.5116 64.7414 94.799 65.557 94.2922 66.6021C93.7855 67.6314 93.5321 68.835 93.5321 70.2127C93.5321 71.6062 93.7855 72.8414 94.2922 73.9182C94.8148 74.9792 95.5353 75.8185 96.4538 76.4361C97.3723 77.0379 98.4412 77.3387 99.6605 77.3387Z" fill="white"/>
<path d="M118.474 79.0965C117.286 79.0965 116.193 78.8827 115.196 78.4552C114.214 78.0118 113.359 77.3942 112.63 76.6024C111.902 75.7948 111.332 74.8525 110.92 73.7757C110.524 72.6989 110.326 71.5191 110.326 70.2364C110.326 68.542 110.675 67.0376 111.371 65.7232C112.068 64.4089 113.026 63.3796 114.246 62.6353C115.481 61.891 116.882 61.5189 118.45 61.5189C120.049 61.5189 121.459 61.891 122.678 62.6353C123.913 63.3796 124.879 64.4089 125.576 65.7232C126.273 67.0376 126.621 68.5499 126.621 70.2602C126.621 71.5429 126.415 72.7226 126.004 73.7995C125.608 74.8763 125.046 75.8106 124.317 76.6024C123.589 77.3942 122.726 78.0118 121.728 78.4552C120.73 78.8827 119.646 79.0965 118.474 79.0965ZM118.45 77.3387C119.669 77.3387 120.738 77.0379 121.657 76.4361C122.591 75.8185 123.319 74.9713 123.842 73.8945C124.365 72.8176 124.626 71.5904 124.626 70.2127C124.626 68.8508 124.365 67.6473 123.842 66.6021C123.335 65.557 122.615 64.7414 121.68 64.1555C120.762 63.5696 119.685 63.2766 118.45 63.2766C117.215 63.2766 116.138 63.5696 115.219 64.1555C114.301 64.7414 113.588 65.557 113.082 66.6021C112.575 67.6314 112.322 68.835 112.322 70.2127C112.322 71.6062 112.575 72.8414 113.082 73.9182C113.604 74.9792 114.325 75.8185 115.243 76.4361C116.162 77.0379 117.231 77.3387 118.45 77.3387Z" fill="white"/>
<path d="M129.855 78.859V61.7564H131.803V78.859H129.855ZM131.589 69.9751L140.473 61.7564H143.204L134.131 69.9751H131.589ZM140.853 78.859L131.541 69.9751H134.131L143.679 78.859H140.853Z" fill="white"/>
</svg>
